PathFileType	3	(X/Y/Z)	C:\Users\koon_\Desktop\
DataRate	CameraRate	NumFrames	NumMarkers	Units	OrigDataRate	OrigDataStartFrame	OrigNumFrames
100.0	100.0	11	27	mm	100.0	3313	3786	
Frame#	Time	get:LFHD			get:RFHD			get:LBHD			get:RBHD			get:C7			get:T10			get:CLAV			get:STRN			get:RBAK			get:LSHO			get:LUPA			get:LELB			get:LFRA			get:LWRA			get:LWRB			get:LFIN			get:RSHO			get:RUPA			get:RELB			get:RFRA			get:RWRA			get:RWRB			get:RFIN			get:LASI			get:RASI			get:LPSI			get:RPSI			
		X1	Y1	Z1	X2	Y2	Z2	X3	Y3	Z3	X4	Y4	Z4	X5	Y5	Z5	X6	Y6	Z6	X7	Y7	Z7	X8	Y8	Z8	X9	Y9	Z9	X10	Y10	Z10	X11	Y11	Z11	X12	Y12	Z12	X13	Y13	Z13	X14	Y14	Z14	X15	Y15	Z15	X16	Y16	Z16	X17	Y17	Z17	X18	Y18	Z18	X19	Y19	Z19	X20	Y20	Z20	X21	Y21	Z21	X22	Y22	Z22	X23	Y23	Z23	X24	Y24	Z24	X25	Y25	Z25	X26	Y26	Z26	X27	Y27	Z27	
3313	33.12	-1.9912685	1430.7462	74.330841	-148.28535	1451.6877	20.289904	34.475079	1521.7025	-1.7081839	-75.746269	1550.676	-54.704586	-51.815277	1366.7546	-219.97214	63.69809	1152.2378	-248.73422	-28.250385	1304.0492	-50.950832	45.814892	1138.2458	9.4031382	-85.356499	1277.0745	-258.97641	-7.3942375	1424.7079	-163.21336	6.7135773	1512.7301	-148.45287	-6.0986338	1640.191	-85.081558	-43.743324	1522.8759	-125.01493	-81.372032	1450.2321	-137.47849	-141.04408	1481.4666	-147.88853	-147.27237	1395.1107	-187.41145	-182.96335	1296.8708	-162.66299	-181.95049	1079.7246	-218.92157	-138.82608	1015.1738	-304.43073	-161.05684	928.09961	-255.79041	-141.27959	782.62689	-270.50864	-134.08972	801.27295	-342.22488	-181.87238	739.08508	-319.56064	194.09033	943.72815	-56.949982	-78.824196	920.35291	-62.487206	112.28803	971.27325	-251.07431	8.4583731	954.54688	-253.36287
3314	33.13	-0.95788825	1432.1278	74.08268	-147.27075	1453.0886	20.064598	35.715141	1522.7318	-2.3437729	-74.493149	1551.8801	-55.305286	-51.400822	1367.3693	-219.95145	63.599079	1152.0707	-248.39925	-27.830528	1304.63	-50.693176	45.722553	1138.3134	9.7428074	-85.240311	1277.3879	-258.82458	-6.0753679	1424.8505	-163.2012	8.6187077	1512.802	-148.6705	-3.5364006	1640.8528	-85.645973	-43.192207	1524.3107	-125.6538	-82.372719	1452.0475	-138.04779	-141.38812	1484.6625	-148.48029	-149.12875	1398.4912	-188.20584	-182.5528	1297.6373	-162.36835	-182.38504	1080.5404	-218.45456	-139.7122	1015.6929	-303.82935	-162.39244	928.91113	-255.08905	-143.06418	783.23248	-269.21271	-136.27708	801.55634	-340.99377	-183.89291	739.74402	-318.09122	193.72905	943.58405	-56.617889	-79.253113	920.25653	-62.123348	111.86665	971.22205	-250.88913	7.9888692	954.51459	-253.14879
3315	33.14	0.11639562	1433.7388	73.873268	-146.20674	1454.5574	19.756241	36.020199	1523.7021	-3.7831728	-77.828018	1555.6343	-55.491863	-50.408218	1367.3223	-219.15643	63.46759	1151.8546	-248.0042	-27.041285	1305.052	-50.199276	45.576302	1138.3153	10.009547	-85.015312	1277.6646	-258.71231	-4.6904526	1424.9685	-163.17155	10.646152	1512.8086	-148.83588	-0.43194279	1641.3804	-86.164604	-42.727795	1526.038	-126.37646	-83.576866	1454.37	-138.76764	-141.8279	1488.5281	-149.16574	-151.9238	1402.5018	-188.50311	-182.07074	1298.6422	-162.05338	-182.68912	1081.3975	-217.72588	-140.64572	1016.2146	-303.11746	-163.68698	929.7041	-254.25752	-144.80054	783.89807	-267.79852	-138.25108	801.95538	-339.66351	-185.9734	740.30414	-316.37302	193.33167	943.39063	-56.347416	-79.790718	920.14038	-61.796097	111.40263	971.11621	-250.65329	7.488646	954.4458	-252.87834
3316	33.15	1.1820188	1435.5447	73.550362	-145.10033	1456.1748	19.402252	37.097	1524.9512	-4.6622739	-77.84317	1557.2393	-56.46122	-48.836391	1367.9323	-219.1861	63.289104	1151.6292	-247.58478	-26.288633	1305.511	-49.652992	45.467598	1138.3701	10.379375	-84.516945	1278.2728	-258.56094	-3.1568198	1425.0179	-163.16632	12.780596	1512.7898	-148.94289	3.1763847	1641.8162	-86.62558	-42.24498	1528.1807	-127.28841	-85.225594	1457.1738	-139.54213	-142.51973	1493.2694	-150.24059	-156.10812	1407.717	-189.78352	-181.52754	1299.6183	-161.43915	-183.20563	1082.2968	-217.02214	-141.6188	1016.8591	-302.42181	-165.08911	930.60712	-253.4386	-146.64024	784.58716	-266.35733	-139.88458	802.50647	-338.31995	-188.05603	740.97607	-314.70532	192.879	943.2157	-56.039928	-80.304901	920.03931	-61.405186	110.88995	971.02283	-250.40724	6.9458117	954.41284	-252.6584
3317	33.16	2.3072476	1437.5374	73.252213	-143.95477	1457.8478	18.905693	38.265865	1526.337	-5.6208305	-77.763901	1558.8433	-57.639275	-47.380241	1368.4435	-219.52939	63.168758	1151.4078	-247.142	-25.626896	1306.2587	-49.167328	45.364449	1138.3735	10.679378	-83.867897	1278.9843	-258.18863	-1.6306787	1425.0989	-163.12129	15.050309	1512.8877	-148.99275	6.927444	1642.5493	-87.320183	-41.889755	1530.704	-128.26938	-87.488617	1460.8212	-140.86641	-143.39203	1499.0414	-151.44319	-160.0753	1413.2772	-189.79843	-180.89757	1300.7493	-161.07196	-183.73267	1083.3239	-216.27904	-142.63742	1017.4264	-301.6011	-166.34102	931.37805	-252.24474	-148.54614	785.28442	-264.78488	-142.30991	802.84503	-336.83517	-190.22815	741.42249	-312.75531	192.3564	942.99579	-55.802753	-80.882759	919.93884	-61.125546	110.30743	970.99231	-250.22156	6.3619757	954.40845	-252.47401
3318	33.17	3.4031007	1439.6525	72.844193	-142.83768	1459.6653	18.253178	39.433758	1527.816	-6.7066951	-77.664711	1560.5509	-58.985142	-46.024254	1368.675	-220.02266	62.999802	1151.1312	-246.76521	-24.889118	1306.967	-48.673145	45.203411	1138.4353	11.122387	-83.307098	1279.5665	-257.88547	-0.053309884	1425.1511	-163.06082	17.191143	1512.9397	-148.69641	10.815757	1643.438	-88.084908	-41.512772	1533.693	-129.39633	-89.998444	1465.3783	-142.29854	-144.46387	1505.7917	-152.55321	-164.66861	1420.1049	-190.55856	-180.17947	1301.9708	-160.55083	-184.31763	1084.3606	-215.44359	-144.06906	1017.9763	-300.70419	-167.59422	932.22815	-250.83289	-150.43875	786.03229	-263.1355	-144.08701	803.44708	-335.30881	-192.37306	742.01294	-310.84061	191.82909	942.82367	-55.54105	-81.485817	919.84241	-60.790321	109.68322	970.8797	-250.01813	5.7853293	954.31647	-252.17638
3319	33.18	4.520431	1442.024	72.4496	-141.68272	1461.652	17.578657	40.728374	1529.3508	-7.8476276	-77.435867	1562.2886	-60.514431	-44.892906	1369.3596	-220.82263	62.79108	1150.8892	-246.41093	-24.162352	1307.6011	-48.143936	45.126122	1138.5573	11.490329	-82.889809	1279.9597	-257.53195	1.5494325	1425.209	-162.92038	19.507782	1512.9099	-148.51381	15.228052	1644.4451	-88.967842	-41.230625	1537.4886	-131.15727	-92.670792	1470.8704	-143.86337	-145.52028	1513.5278	-153.66959	-169.67696	1427.9137	-190.95813	-179.52353	1303.1354	-159.93213	-184.90549	1085.5321	-214.57246	-145.32961	1018.5789	-299.62558	-168.91046	933.15472	-249.33572	-152.46089	786.8797	-261.34882	-146.47127	804.04547	-333.69183	-194.56241	742.50549	-308.69675	191.29865	942.61664	-55.265026	-82.092247	919.79803	-60.424194	109.09455	970.79883	-249.86253	5.1684756	954.3316	-251.95534
3320	33.19	5.6661491	1444.5758	71.940582	-140.46893	1463.7738	16.81144	42.009396	1531.0596	-9.1586838	-76.065132	1564.4747	-61.971203	-43.904541	1369.923	-220.8127	62.574909	1150.6791	-246.04263	-23.427248	1308.1219	-47.689693	45.070633	1138.6982	11.939131	-82.499458	1280.3605	-257.15482	3.206888	1425.2332	-162.79285	22.13003	1513.0546	-148.31766	20.0072	1645.4703	-89.587227	-40.955093	1541.8502	-132.89612	-95.391182	1477.2281	-145.59346	-146.39015	1522.3218	-154.77005	-175.06985	1437.3322	-192.08586	-178.87735	1304.51	-159.71931	-185.51466	1086.8059	-213.58316	-146.19046	1019.6063	-298.65933	-170.8459	934.31177	-248.48582	-154.35806	787.68073	-259.45535	-149.22887	804.45587	-331.83801	-196.75732	742.96136	-306.34818	190.74268	942.44104	-54.989952	-82.724907	919.69598	-60.051136	108.48241	970.72461	-249.59088	4.4599285	954.40875	-251.66234
3321	33.2	6.8740773	1447.3506	71.371445	-139.19562	1465.9828	15.973032	43.267937	1532.9254	-10.748564	-69.625175	1565.5924	-54.034832	-42.96587	1370.3463	-220.61226	62.324215	1150.5183	-245.62369	-22.69211	1308.5779	-47.273254	45.100952	1138.8221	12.427363	-82.061287	1280.8965	-256.76624	4.9171605	1425.3597	-162.65771	25.00601	1513.3617	-148.43593	24.993692	1646.3828	-90.343849	-40.461906	1546.8129	-133.91849	-98.007416	1484.4716	-147.4117	-147.0647	1531.8928	-155.53827	-180.63095	1447.3489	-191.48602	-178.2283	1305.8837	-159.22595	-186.08905	1088.0977	-212.52052	-147.86835	1020.1987	-297.29837	-172.16714	935.36816	-246.69971	-156.44937	788.54926	-257.58319	-151.44423	805.37061	-330.17618	-199.084	743.51324	-304.09546	190.17891	942.21924	-54.753963	-83.374039	919.66455	-59.785454	107.83486	970.68933	-249.29547	3.7943702	954.47308	-251.47723
3322	33.21	8.1671877	1450.4452	70.777588	-137.92033	1468.2206	15.084833	44.505672	1534.9709	-12.585457	-64.058403	1566.9874	-66.36898	-41.868431	1370.6599	-220.20526	62.017982	1150.3699	-245.17848	-21.891602	1308.9412	-46.795712	45.087399	1138.9856	12.988934	-81.599205	1281.5022	-256.33182	6.6704645	1425.5127	-162.51218	27.822895	1513.7396	-148.49428	30.533709	1647.9813	-91.324615	-39.645584	1552.2018	-134.89848	-100.33797	1492.5287	-149.30998	-147.37445	1542.1996	-155.7919	-185.91682	1459.0868	-191.90042	-177.5518	1307.2385	-158.3918	-186.61507	1089.3716	-211.35873	-149.26982	1021.1528	-296.18048	-173.86365	936.58105	-245.20049	-158.51355	789.52124	-255.4008	-154.05225	806.05963	-328.16928	-201.42216	743.98187	-301.68518	189.60512	942.06744	-54.501907	-84.053467	919.62354	-59.386211	107.15857	970.64124	-248.8394	3.0665541	954.53204	-251.17853
3323	33.22	9.5267935	1453.9052	70.034515	-136.6019	1470.5459	14.241367	45.640636	1537.1373	-14.672498	-64.00177	1568.4312	-68.99617	-40.817772	1370.9991	-219.85883	61.661743	1150.22	-244.66292	-21.20084	1309.3676	-46.202282	45.079193	1139.1769	13.549156	-81.21376	1282.1367	-255.95186	8.4718523	1425.6335	-162.25531	30.932026	1514.1224	-148.93462	36.274422	1649.502	-92.443748	-38.48991	1557.923	-136.01501	-102.28335	1501.229	-151.02011	-147.09886	1553.2019	-156.20425	-190.27774	1471.8645	-192.19221	-176.98392	1308.7955	-158.23116	-187.25404	1090.7566	-210.20679	-150.38483	1022.2403	-294.80258	-175.25928	937.71069	-243.10925	-160.77011	790.38123	-253.30415	-156.76822	806.81165	-326.0412	-203.77078	744.39435	-299.09451	188.99448	941.90906	-54.236145	-84.748695	919.60248	-58.981224	106.44839	970.63953	-248.60201	2.2768016	954.61749	-250.75754
